<svg width="192" height="119" viewBox="0 0 192 119" fill="none" xmlns="http://www.w3.org/2000/svg">
<g clip-path="url(#clip0_4_2901)">
<g clip-path="url(#clip1_4_2901)">
<g clip-path="url(#clip2_4_2901)">
<g clip-path="url(#clip3_4_2901)">
<g clip-path="url(#clip4_4_2901)">
<g clip-path="url(#clip5_4_2901)">
<g clip-path="url(#clip6_4_2901)">
<g clip-path="url(#clip7_4_2901)">
<g clip-path="url(#clip8_4_2901)">
<path d="M38.4147 50.9158L44.3737 67.2965L49.9127 50.9158H51.619L45.1087 69.2916H43.3762L36.6296 50.9158H38.4147ZM53.9029 56.166L55.6092 56.0348V69.2916H53.9029V56.166ZM54.6904 52.6484C54.3404 52.6484 54.0726 52.5346 53.8871 52.3071C53.7051 52.0796 53.6141 51.7909 53.6141 51.4408C53.6141 51.0908 53.7139 50.8056 53.9134 50.5851C54.1164 50.3681 54.3929 50.2595 54.7429 50.2595C55.0929 50.2595 55.3764 50.3681 55.5934 50.5851C55.8139 50.8056 55.9242 51.1083 55.9242 51.4934C55.9242 51.8784 55.8052 52.1671 55.5672 52.3596C55.3327 52.5521 55.0404 52.6484 54.6904 52.6484ZM64.5083 67.4015L64.8233 68.8191C64.5083 69.1341 63.9395 69.2916 63.117 69.2916C61.962 69.2916 61.1832 68.9941 60.7807 68.3991C60.0981 67.7515 59.7569 66.8765 59.7569 65.774V57.6886H58.2868L58.5231 56.166H59.7569V53.5672L61.4632 53.4097V56.166H64.5083V57.6886H61.4632V66.194C61.4632 67.209 61.9882 67.7165 63.0383 67.7165C63.4933 67.7165 63.9833 67.6115 64.5083 67.4015ZM67.1282 58.8437L66.6557 57.5836C68.5632 56.6386 70.2346 56.1398 71.6696 56.0873C72.8072 56.0873 73.6875 56.2308 74.3105 56.5178C74.93 56.8083 75.4323 57.2108 75.8173 57.7254C76.2023 58.2434 76.3948 58.9662 76.3948 59.8937V69.2916H74.6885V68.2941C72.2909 69.0291 70.7508 69.3966 70.0683 69.3966C70.0333 69.3966 70.007 69.3966 69.9895 69.3966C68.4145 69.3966 67.3382 68.9153 66.7607 67.9528C66.5507 67.6028 66.4334 67.2615 66.4089 66.929C66.3809 66.5965 66.3669 66.3165 66.3669 66.089C66.3669 65.4589 66.6119 64.8937 67.1019 64.3931C67.5919 63.8961 68.1782 63.5601 68.8607 63.3851C70.0158 63.0876 71.9584 62.8251 74.6885 62.5976V60.4712C74.6885 58.5637 73.691 57.6099 71.6959 57.6099C70.2958 57.6099 68.7732 58.0211 67.1282 58.8437ZM67.9682 66.299C67.9682 67.559 68.8345 68.1891 70.5671 68.1891C71.9496 68.1891 73.3234 67.8915 74.6885 67.2965V63.5426C71.9584 63.9276 70.2696 64.2251 69.622 64.4351C68.5195 64.7852 67.9682 65.4064 67.9682 66.299ZM81.0675 69.2916H79.4137V50.9158H81.0675V59.3949H89.9929V50.9158H91.6467V69.2916H89.9929V60.97H81.0675V69.2916ZM94.7706 58.8437L94.2981 57.5836C96.2057 56.6386 97.877 56.1398 99.312 56.0873C100.45 56.0873 101.328 56.2308 101.948 56.5178C102.571 56.8083 103.075 57.2108 103.46 57.7254C103.845 58.2434 104.037 58.9662 104.037 59.8937V69.2916H102.331V68.2941C99.9333 69.0291 98.3932 69.3966 97.7107 69.3966C97.6757 69.3966 97.6495 69.3966 97.632 69.3966C96.0569 69.3966 94.9806 68.9153 94.4031 67.9528C94.1931 67.6028 94.0741 67.2615 94.0461 66.929C94.0216 66.5965 94.0093 66.3165 94.0093 66.089C94.0093 65.4589 94.2543 64.8937 94.7443 64.3931C95.2344 63.8961 95.8206 63.5601 96.5032 63.3851C97.6582 63.0876 99.6008 62.8251 102.331 62.5976V60.4712C102.331 58.5637 101.333 57.6099 99.3383 57.6099C97.9382 57.6099 96.4157 58.0211 94.7706 58.8437ZM95.6106 66.299C95.6106 67.559 96.4769 68.1891 98.2095 68.1891C99.592 68.1891 100.966 67.8915 102.331 67.2965V63.5426C99.6008 63.9276 97.912 64.2251 97.2644 64.4351C96.1619 64.7852 95.6106 65.4064 95.6106 66.299ZM108.369 49.6033V57.2161C109.401 56.3586 110.574 55.9298 111.886 55.9298C114.126 55.9298 115.693 56.9186 116.585 58.8962C116.935 59.7012 117.11 60.7425 117.11 62.02C117.11 64.3826 116.489 66.1852 115.246 67.4278C114.004 68.6703 112.394 69.2916 110.416 69.2916C109.261 69.2916 108.381 69.2128 107.775 69.0553C107.173 68.8978 106.802 68.7753 106.662 68.6878V49.7345L108.369 49.6033ZM108.369 58.1349V67.8215C108.876 67.944 109.427 68.0053 110.022 68.0053C111.773 68.0053 113.106 67.4978 114.023 66.4827C114.944 65.4677 115.404 64.0414 115.404 62.2038C115.404 60.3662 114.94 59.0537 114.013 58.2661C113.365 57.7236 112.525 57.4524 111.493 57.4524C110.46 57.4524 109.419 57.6799 108.369 58.1349ZM119.52 56.166L121.226 56.0348V69.2916H119.52V56.166ZM120.308 52.6484C119.958 52.6484 119.692 52.5346 119.51 52.3071C119.324 52.0796 119.231 51.7909 119.231 51.4408C119.231 51.0908 119.333 50.8056 119.536 50.5851C119.735 50.3681 120.01 50.2595 120.36 50.2595C120.71 50.2595 120.995 50.3681 121.216 50.5851C121.433 50.8056 121.541 51.1083 121.541 51.4934C121.541 51.8784 121.424 52.1671 121.19 52.3596C120.952 52.5521 120.658 52.6484 120.308 52.6484ZM130.126 67.4015L130.441 68.8191C130.126 69.1341 129.557 69.2916 128.734 69.2916C127.579 69.2916 126.8 68.9941 126.398 68.3991C125.715 67.7515 125.374 66.8765 125.374 65.774V57.6886H123.904L124.14 56.166H125.374V53.5672L127.08 53.4097V56.166H130.126V57.6886H127.08V66.194C127.08 67.209 127.605 67.7165 128.656 67.7165C129.111 67.7165 129.601 67.6115 130.126 67.4015ZM135.717 67.6115C136.102 67.7515 136.715 67.8215 137.555 67.8215C138.395 67.8215 139.48 67.4803 140.81 66.7977V56.166L142.516 56.0348V69.2916H140.81V67.874C139.515 68.8716 138.193 69.3704 136.846 69.3704C135.166 69.3704 133.949 68.8716 133.197 67.874C132.812 67.384 132.619 66.7015 132.619 65.8265V56.166L134.326 56.0348V65.3802C134.326 66.4652 134.79 67.209 135.717 67.6115ZM153.673 56.4286L153.253 57.8986C152.623 57.6886 151.765 57.5836 150.68 57.5836C149.595 57.5836 148.755 57.7761 148.16 58.1611C147.565 58.5461 147.268 59.0222 147.268 59.5892C147.268 60.1597 147.443 60.5762 147.793 60.8387C148.143 61.1013 148.58 61.3235 149.105 61.5055C149.63 61.691 150.202 61.8713 150.822 62.0463C151.445 62.2213 152.019 62.4488 152.544 62.7288C153.769 63.3589 154.382 64.2951 154.382 65.5377C154.382 66.7802 153.956 67.734 153.106 68.3991C152.259 69.0641 151.021 69.3966 149.394 69.3966C148.571 69.3966 147.779 69.3126 147.016 69.1446C146.256 68.9801 145.675 68.7491 145.272 68.4516L145.85 67.0603C146.253 67.4103 147.066 67.664 148.291 67.8215C148.676 67.874 149.07 67.9003 149.473 67.9003C150.383 67.9003 151.144 67.7113 151.756 67.3333C152.369 66.9588 152.675 66.3865 152.675 65.6164C152.675 65.0914 152.5 64.6802 152.15 64.3826C151.8 64.0851 151.363 63.8349 150.838 63.6319C150.313 63.4324 149.739 63.2538 149.116 63.0963C148.496 62.9388 147.924 62.7323 147.399 62.4768C146.874 62.2248 146.436 61.8923 146.086 61.4793C145.736 61.0698 145.561 60.515 145.561 59.815C145.561 58.6774 145.999 57.7674 146.874 57.0848C147.749 56.4023 148.921 56.061 150.391 56.061C150.759 56.061 151.135 56.082 151.52 56.124C151.905 56.1695 152.255 56.2098 152.57 56.2448L153.673 56.4286Z" fill="#B52178"/>
</g>
</g>
</g>
</g>
</g>
</g>
</g>
<path d="M38.4554 44.9304C41.6922 32.2569 49.0568 21.022 59.3871 12.9985C69.7174 4.97491 82.4253 0.619507 95.5056 0.619507C108.586 0.619507 121.294 4.97491 131.624 12.9985C141.954 21.022 149.319 32.2569 152.556 44.9304H150.771C147.594 32.6904 140.443 21.8514 130.441 14.1139C120.439 6.37646 108.151 2.17841 95.5056 2.17841C82.86 2.17841 70.5722 6.37646 60.57 14.1139C50.5679 21.8514 43.4174 32.6904 40.2404 44.9304H38.4554ZM38.4554 74.0695C41.6922 86.7429 49.0568 97.9778 59.3871 106.001C69.7174 114.025 82.4253 118.38 95.5056 118.38C108.586 118.38 121.294 114.025 131.624 106.001C141.954 97.9778 149.319 86.7429 152.556 74.0695H150.771C147.594 86.3095 140.443 97.1485 130.441 104.886C120.439 112.623 108.151 116.821 95.5056 116.821C82.86 116.821 70.5722 112.623 60.57 104.886C50.5679 97.1485 43.4174 86.3095 40.2404 74.0695H38.4554Z" fill="#B52178"/>
</g>
</g>
<defs>
<clipPath id="clip0_4_2901">
<rect width="191.011" height="119" fill="white"/>
</clipPath>
<clipPath id="clip1_4_2901">
<rect width="190.554" height="119.096" fill="white" transform="translate(0.228516 -0.0482178)"/>
</clipPath>
<clipPath id="clip2_4_2901">
<rect width="117.762" height="19.7933" fill="white" transform="translate(36.6244 49.6033)"/>
</clipPath>
<clipPath id="clip3_4_2901">
<rect width="117.762" height="19.7933" fill="white" transform="translate(36.6244 49.6033)"/>
</clipPath>
<clipPath id="clip4_4_2901">
<rect width="117.762" height="19.7933" fill="white" transform="translate(36.6244 49.6033)"/>
</clipPath>
<clipPath id="clip5_4_2901">
<rect width="117.762" height="19.7933" fill="white" transform="translate(36.6244 49.6033)"/>
</clipPath>
<clipPath id="clip6_4_2901">
<rect width="117.762" height="19.7933" fill="white" transform="translate(36.6244 49.6033)"/>
</clipPath>
<clipPath id="clip7_4_2901">
<rect width="117.762" height="19.7933" fill="white" transform="translate(36.6244 49.6033)"/>
</clipPath>
<clipPath id="clip8_4_2901">
<rect width="117.762" height="19.7933" fill="white" transform="translate(36.6244 49.6033)"/>
</clipPath>
</defs>
</svg>
